PathFileType	4	(X/Y/Z)	Kaydara																																																																																																																									
DataRate	CameraRate	NumFrames	NumMarkers	Units	OrigDataRate	OrigDataStartFrame	OrigNumFrames																																																																																																																					
30	30	6	41	mm	30	212	266																																																																																																																					
Frame#	Time	SALE_LFHD			SALE_RFHD			SALE_LBHD			SALE_RBHD			SALE_LFTShould			SALE_RFTShould			SALE_LRRShould			SALE_RRRShould			SALE_T10			SALE_STRN			SALE_TRUN			SALE_LSHO			SALE_LUPA			SALE_LELB			SALE_LFRM			SALE_LWRA			SALE_LWRB			SALE_LFIN			SALE_RSHO			SALE_RUPA			SALE_RELB			SALE_RFRM			SALE_RWRB			SALE_RFIN			SALE_LFWT			SALE_RFWT			SALE_LBWT			SALE_RBWT			SALE_LTHI			SALE_LKNE			SALE_RWRA			SALE_LSHN			SALE_LANK			SALE_LHEE			SALE_LTOE			SALE_RTHI			SALE_RKNE			SALE_RSHN			SALE_RANK			SALE_RHEE			SALE_RTOE		
		X1	Y1	Z1	X2	Y2	Z2	X3	Y3	Z3	X4	Y4	Z4	X5	Y5	Z5	X6	Y6	Z6	X7	Y7	Z7	X8	Y8	Z8	X9	Y9	Z9	X10	Y10	Z10	X11	Y11	Z11	X12	Y12	Z12	X13	Y13	Z13	X14	Y14	Z14	X15	Y15	Z15	X16	Y16	Z16	X17	Y17	Z17	X18	Y18	Z18	X19	Y19	Z19	X20	Y20	Z20	X21	Y21	Z21	X22	Y22	Z22	X23	Y23	Z23	X24	Y24	Z24	X25	Y25	Z25	X26	Y26	Z26	X27	Y27	Z27	X28	Y28	Z28	X29	Y29	Z29	X30	Y30	Z30	X31	Y31	Z31	X32	Y32	Z32	X33	Y33	Z33	X34	Y34	Z34	X35	Y35	Z35	X36	Y36	Z36	X37	Y37	Z37	X38	Y38	Z38	X39	Y39	Z39	X40	Y40	Z40	X41	Y41	Z41
																																																																																																																												
167	7.033	163.13032	1573.1543	796.31096	33.90363	1558.52921	795.54642	156.66489	1609.34631	669.09927	32.07118	1592.5296	674.02512	191.96405	1338.16574	678.20084	52.3185	1332.44095	695.00839	171.40371	1408.19977	575.07915	23.04505	1408.49487	600.45067	89.26778	1263.57162	500.85648	123.82694	1259.14581	724.59175	126.97901	1168.92372	754.66652	297.48362	1374.80469	597.83051	333.79864	1162.68448	551.62144	313.45934	1055.22972	524.49696	348.45764	948.10631	537.09915	303.66541	802.98279	603.06133	357.95948	800.41595	548.74321	365.76836	753.44215	591.95641	-62.18614	1368.83102	650.6514	-104.61181	1137.40891	598.25954	-129.04875	1040.19989	654.50134	-119.1197	925.3421	668.55751	-127.37018	803.51425	749.12331	-130.21404	781.25938	812.71065	244.18751	938.88298	681.1853	-34.06455	937.76436	674.81079	192.74401	986.54449	508.71044	14.75584	999.01169	505.65075	234.86877	613.2122	635.11768	212.58389	494.30439	786.37596	-77.56708	831.2664	798.80135	205.8713	288.94112	818.12561	201.357	101.30255	794.68445	164.59478	43.55565	735.7811	169.04102	78.88823	927.1434	-27.91492	692.77626	498.05878	-6.13493	528.48278	585.44636	59.50963	340.8392	549.37176	36.73994	96.18116	462.53838	43.99694	48.60548	580.90256	89.98042	37.99973	393.34858
168	7.067	164.99779	1568.08563	823.29979	35.61693	1554.34387	823.32024	157.97667	1604.57184	696.11923	33.22074	1588.56415	701.88728	191.76317	1333.52173	705.80978	51.89002	1328.17291	721.58806	171.96907	1403.30414	602.43351	23.485	1403.99338	626.68682	90.09656	1258.60672	528.01895	123.0617	1254.82094	751.99493	125.75795	1164.73282	782.48062	297.79575	1369.78455	625.78957	333.79292	1157.78305	579.49406	313.2719	1050.20454	552.61467	348.71201	943.53569	563.54565	305.0012	797.61803	628.43338	358.70064	795.74684	573.47363	366.9117	748.22159	615.99915	-62.20857	1364.54498	676.26228	-104.55047	1133.44055	622.45865	-128.80454	1035.77904	678.67409	-117.93123	921.15372	695.34035	-124.17387	801.4325	779.4442	-126.83546	781.01501	843.62717	242.95942	933.73833	710.43503	-35.25969	933.19862	701.81679	192.75375	982.38724	537.58347	14.75742	995.02556	533.17787	236.18193	607.16423	657.85988	210.45464	486.39851	808.19893	-74.92333	831.41098	828.21495	203.41457	292.67893	863.73024	200.82085	103.60858	866.76971	166.97296	38.7364	814.89395	164.3664	93.20455	1002.79343	-27.5794	691.68999	519.57363	-5.96921	525.73746	602.5935	60.33183	338.31093	560.57274	37.0555	96.67321	464.36722	43.95474	48.40945	581.13884	90.46317	39.60728	393.8451
169	7.1	166.88848	1562.81174	850.30441	37.4801	1549.84177	850.54672	159.83063	1599.4545	723.16551	35.01786	1584.09836	729.09988	192.37326	1328.33527	733.89786	52.3632	1323.61481	748.51357	173.72189	1397.7597	630.06634	24.93557	1399.06403	653.04222	91.90042	1252.95029	555.68626	122.79058	1250.2507	779.98749	124.806	1160.37071	811.12869	299.16641	1363.91708	654.50752	334.5623	1151.82335	608.72913	313.78382	1044.3512	582.0924	349.52606	937.96295	591.78516	306.51587	791.34804	655.88875	359.77386	790.13901	600.32135	368.13332	741.90651	642.20451	-61.40278	1359.94232	701.63239	-102.93421	1128.92738	647.0137	-127.60936	1031.08803	702.79045	-116.22835	916.58401	720.80795	-121.94532	798.09067	806.67526	-124.1214	778.48801	871.05392	241.73185	928.64868	741.78734	-36.41974	928.19122	730.31647	193.34494	977.10236	568.1591	15.29155	989.80667	561.94115	236.68377	601.59126	683.87001	212.06802	478.03699	831.88972	-72.62315	829.18449	855.37888	203.80121	293.95081	901.1792	198.3309	105.61937	923.13095	164.04503	36.67476	877.66945	160.51243	107.50389	1060.34523	-26.08208	690.07706	543.23723	-5.23476	522.61456	621.42975	61.4117	335.48836	572.79442	37.64675	98.10768	467.04548	43.97954	48.23581	581.54442	90.88808	42.33313	394.62425
170	7.133	168.91468	1558.14758	877.41074	39.43233	1545.71487	877.13387	162.51751	1594.59076	750.13908	37.56961	1579.74258	755.62157	193.70985	1323.17886	762.42332	53.42318	1319.36081	775.75066	176.55531	1392.02866	657.95242	27.39877	1394.37424	679.49066	94.50426	1247.00897	584.0493	123.07233	1245.83023	808.52997	124.12443	1156.27037	840.51331	301.41979	1357.46277	683.6261	336.0524	1145.04517	639.05293	314.96658	1037.51945	612.84698	350.7259	931.43547	621.53603	308.56758	784.66408	685.54955	361.18076	783.68019	629.24198	369.76181	734.89235	670.65941	-59.59261	1355.61752	727.66479	-100.59932	1124.68559	672.22656	-125.81657	1026.73553	727.57217	-114.5337	912.16675	745.18288	-120.15216	793.07869	830.23041	-122.47375	773.16841	894.57207	240.88728	924.24316	775.34409	-37.19052	923.01575	759.79721	194.71601	971.80855	600.75645	16.58707	984.01772	592.44205	237.93139	597.18212	714.04068	214.50392	470.87193	858.40614	-71.15198	823.92967	878.79189	205.45958	289.08228	930.62798	195.56053	101.7241	958.12004	157.88037	32.09894	915.85602	161.31493	108.03291	1096.94	-23.61832	688.51448	568.87367	-4.34264	519.63367	641.93687	62.56721	333.36937	586.28883	38.28649	100.91628	470.31773	43.93876	48.13023	582.18906	91.49052	47.25223	395.72002
171	7.167	171.30972	1554.69574	904.5079	41.65434	1542.81784	903.13362	166.11685	1590.56244	776.86157	40.9658	1576.33896	781.41167	195.7827	1318.67111	791.28479	55.27844	1316.00403	803.32657	180.32198	1386.70059	685.86594	30.81877	1390.44205	705.75188	98.0613	1241.07285	613.09689	124.07583	1242.48589	837.82211	124.14386	1153.38272	871.06178	304.56577	1351.10489	712.84981	337.92675	1138.19275	669.85207	316.61745	1030.56519	644.76715	352.43561	924.72153	652.91679	311.40715	777.94197	717.53922	362.8273	776.94489	660.39139	371.96133	728.13126	701.56303	-56.9665	1352.29599	753.51387	-97.87805	1121.44836	698.07755	-123.50286	1023.51585	753.01735	-113.12392	908.59741	768.22639	-120.05214	787.69897	850.34492	-122.0916	766.17592	914.30702	240.87294	920.32753	811.54083	-37.02594	918.35434	791.25511	197.21506	967.57523	635.8997	18.825	979.18236	625.13103	237.81641	593.36605	748.2991	213.46972	464.84333	888.1707	-70.45904	816.65207	899.26094	204.30132	279.77772	953.36197	194.26973	92.34557	975.75798	155.57457	32.00837	929.24126	164.51324	88.72192	1112.12166	-20.65702	687.97012	597.03369	-3.30005	517.4052	665.28625	63.44539	331.8322	602.10205	37.73896	105.10575	474.12315	43.36056	47.98763	583.31181	90.44948	54.94349	397.27905
172	7.2	173.79705	1555.63217	932.68326	44.10144	1544.2276	929.69955	170.21709	1591.33194	804.83444	44.95444	1577.50031	808.00735	198.36872	1317.77008	820.33356	57.60457	1316.59332	831.40587	185.32438	1385.33615	714.27353	34.81663	1390.70419	732.72392	102.21846	1239.22043	643.42751	125.70159	1242.67227	867.67746	124.49129	1154.29092	902.44514	308.68225	1347.43973	742.36313	340.57343	1133.25089	701.82915	319.11228	1025.44617	678.60489	354.55589	919.77371	686.5007	313.80219	773.70369	752.28661	364.33327	772.13196	694.19128	374.14276	723.80783	735.16975	-54.06332	1352.22931	779.5977	-94.53676	1120.05226	724.53522	-120.88423	1022.6004	778.9547	-111.82046	907.78244	790.38963	-121.14923	783.27095	866.20621	-123.1761	759.14223	929.40781	241.10943	921.02013	848.81943	-36.41185	916.35544	825.1442	200.77801	967.77267	672.18475	20.63047	977.13058	659.14673	239.01701	596.40404	778.07617	214.57569	463.11905	912.58949	-70.69847	809.26857	916.46927	202.96936	277.66842	973.88527	191.99793	90.70952	989.76791	151.48695	38.62417	937.81288	163.49682	64.51579	1132.99728	-16.85963	688.20778	628.79158	-0.88907	516.51867	693.84995	65.20694	331.69319	622.11628	34.95631	113.47794	480.90073	42.01059	47.65737	585.35706	86.49324	67.73261	400.45189
